<svg xmlns="http://www.w3.org/2000/svg" version="1.1" xmlns:xlink="http://www.w3.org/1999/xlink" xmlns:svgjs="http://svgjs.com/svgjs" ><g xmlns="http://www.w3.org/2000/svg" xmlns:name="symbol_mainfill" id="SvgjsG1677" rel="mainfill" name="symbol"  fill="#292929"><path d="M42.378,45.654c0.031-0.523-0.011-1.186-0.186-2.052c-0.402-1.984-0.837-4.045-0.837-4.045S41,41.633,40.677,43.632  c-0.112,0.694-0.148,1.265-0.133,1.737c-0.145,0.067-0.276,0.155-0.396,0.258c-0.459-0.157-0.986-0.297-1.602-0.398  c-1.997-0.33-8.978-2.479-8.978-2.479s6.714,2.894,8.468,3.906c0.584,0.337,1.125,0.584,1.612,0.756  c0.219,0.676,0.848,1.169,1.597,1.169c0.932,0,1.686-0.755,1.686-1.685C42.932,46.402,42.716,45.962,42.378,45.654z M41.246,46.211  c0.082,0,0.159,0.021,0.232,0.047c0.12,0.081,0.222,0.163,0.313,0.244c0.082,0.113,0.141,0.245,0.141,0.395  c0,0.04-0.016,0.074-0.023,0.112c-0.056,0.322-0.325,0.572-0.663,0.572c-0.378,0-0.686-0.307-0.686-0.685  c0-0.165,0.066-0.31,0.163-0.428C40.85,46.315,41.033,46.211,41.246,46.211z" fill="#292929" style="fill: rgb(41, 41, 41);"/><path d="M41.246,38.785c-0.276,0-0.5-0.224-0.5-0.5v-3.097c0-0.276,0.224-0.5,0.5-0.5s0.5,0.224,0.5,0.5v3.097  C41.746,38.561,41.522,38.785,41.246,38.785z" fill="#292929" style="fill: rgb(41, 41, 41);"/><path d="M41.246,59.307c-0.276,0-0.5-0.224-0.5-0.5V55.71c0-0.276,0.224-0.5,0.5-0.5s0.5,0.224,0.5,0.5v3.097  C41.746,59.083,41.522,59.307,41.246,59.307z" fill="#292929" style="fill: rgb(41, 41, 41);"/><path d="M32.604,47.496h-3.097c-0.276,0-0.5-0.224-0.5-0.5s0.224-0.5,0.5-0.5h3.097c0.276,0,0.5,0.224,0.5,0.5  S32.88,47.496,32.604,47.496z" fill="#292929" style="fill: rgb(41, 41, 41);"/><path d="M53.127,47.496h-3.098c-0.276,0-0.5-0.224-0.5-0.5s0.224-0.5,0.5-0.5h3.098c0.276,0,0.5,0.224,0.5,0.5  S53.403,47.496,53.127,47.496z" fill="#292929" style="fill: rgb(41, 41, 41);"/><path d="M94.455,54.364c0-1.658-0.911-2.715-1.643-3.564c-0.555-0.644-0.895-1.061-0.895-1.515c0-0.504,0.368-0.874,1.02-1.485  c0.809-0.759,1.916-1.798,1.916-3.611c0-2.045-1.172-3.155-2.026-3.965c-0.574-0.544-0.899-0.869-0.899-1.228  c0-0.503,0.173-0.773,0.486-1.263c0.465-0.727,1.103-1.723,1.103-3.728c0-2.658-2.453-3.773-3.75-3.992L48,30.006v-0.398  C48,29.272,47.728,29,47.393,29H35.607C35.272,29,35,29.272,35,29.607v0.396L21,30v-3H4v40h17v-3h14v0.393  C35,64.729,35.272,65,35.607,65h11.785C47.728,65,48,64.729,48,64.393V64h2.19c0.179,0.332,0.467,0.992,0.766,2.187  c0.697,2.789,3.749,3.547,4.349,3.67c3.621,1.292,20.791,7.374,23.253,7.374c3.525,0,5.304-5.148,5.878-7.23h5.029l0.248-0.031  c1.467-0.376,4.277-1.953,4.417-5.233c0.068-1.616-0.69-2.442-1.3-3.105c-0.512-0.558-0.882-0.961-0.882-1.903  c0-0.434,0.299-0.814,0.827-1.449C93.484,57.424,94.455,56.256,94.455,54.364z M19,30v27H6V29h13V30z M35,62H21V32h14v1.037  c-5.305,2.399-9.003,7.726-9.003,13.928c0,6.201,3.698,11.527,9.003,13.927V62z M41.288,60.255c-2.273,0-4.415-0.575-6.288-1.586  c-4.165-2.247-7.003-6.649-7.003-11.704c0-5.055,2.838-9.458,7.003-11.705c1.874-1.011,4.015-1.586,6.288-1.586  c2.45,0,4.739,0.678,6.712,1.838c3.93,2.312,6.58,6.574,6.58,11.453c0,4.879-2.65,9.141-6.58,11.452  C46.027,59.577,43.738,60.255,41.288,60.255z M91.237,56.999c-0.604,0.727-1.289,1.55-1.289,2.728c0,1.722,0.814,2.608,1.409,3.256  c0.504,0.549,0.808,0.88,0.774,1.669c-0.1,2.343-2.294,3.183-2.811,3.349H75.844c0,0-0.982,0.078-0.982,1c0,1,1.139,1,1.139,1h6.351  c-0.696,2.223-2.105,5.23-3.793,5.23c-1.645,0-14.767-4.468-22.652-7.283l-0.169-0.045c-0.024-0.004-2.403-0.452-2.841-2.2  c-0.618-2.476-1.283-3.248-1.54-3.466L51.076,62H48v-1.313c5.076-2.487,8.58-7.688,8.58-13.723c0-6.035-3.504-11.237-8.58-13.724V32  h41.502c0.359,0.08,2.015,0.528,2.015,2.006c0,1.419-0.383,2.017-0.787,2.649c-0.376,0.587-0.802,1.252-0.802,2.341  c0,1.236,0.81,2.003,1.523,2.68c0.753,0.713,1.402,1.329,1.402,2.514c0,0.901-0.488,1.405-1.284,2.152  c-0.735,0.69-1.651,1.549-1.651,2.943c0,1.219,0.732,2.069,1.379,2.82c0.622,0.721,1.158,1.344,1.158,2.259  C92.455,55.533,91.891,56.213,91.237,56.999z" fill="#292929" style="fill: rgb(41, 41, 41);"/></g></svg>