<svg xmlns="http://www.w3.org/2000/svg" version="1.1" xmlns:xlink="http://www.w3.org/1999/xlink" xmlns:svgjs="http://svgjs.com/svgjs" height="135.4641014099121" width="257.6199951171875"><defs id="SvgjsDefs4451"></defs><g id="SvgjsG4452" rel="mainfill" name="main_text" xmlns:name="main_text" transform="translate(-1.4900000095367432,-128.13590469360352)" fill="#ffffff"><path d="M1.49 198.39L37.38 198.39L37.38 211.55L27.08 211.55L27.08 206.25L17.56 206.25L17.56 214.46L28.87 214.46L28.87 222.38L17.56 222.38L17.56 232.08L27.08 232.08L27.08 226.55L37.38 226.55L37.38 240L1.49 240L1.49 232.08L5.24 232.08L5.24 206.25L1.49 206.25L1.49 198.39ZM58.51 230.36Q58.51 229.88 58.66 229.14Q58.81 228.39 59.05 227.50Q59.29 226.61 59.61 225.65Q59.94 224.70 60.30 223.81L63.15 217.80L60.00 217.80L60.00 210.24L75.36 210.24L75.36 217.80L72.26 217.80L61.96 240L52.74 240L41.67 217.80L38.87 217.80L38.87 210.24L56.96 210.24L56.96 217.80L53.99 217.80L56.73 224.11Q57.32 225.83 57.74 227.62Q58.15 229.40 58.27 230.36L58.51 230.36ZM106.73 235.89Q103.39 238.75 99.70 239.91Q96.01 241.07 91.37 241.07Q88.57 241.07 85.77 240.15Q82.98 239.23 80.74 237.29Q78.51 235.36 77.08 232.29Q75.65 229.23 75.65 224.94Q75.65 221.31 76.90 218.42Q78.15 215.54 80.30 213.51Q82.44 211.49 85.36 210.45Q88.27 209.40 91.67 209.40Q95.36 209.40 98.18 210.48Q101.01 211.55 102.92 213.45Q104.82 215.36 105.77 217.95Q106.73 220.54 106.73 223.57Q106.73 224.76 106.55 225.92Q106.37 227.08 106.01 228.10L87.26 228.10Q87.38 228.69 87.65 229.52Q87.92 230.36 88.57 231.13Q89.23 231.90 90.36 232.44Q91.49 232.98 93.39 232.98Q94.17 232.98 95.09 232.92Q96.01 232.86 97.08 232.56Q98.15 232.26 99.35 231.70Q100.54 231.13 101.73 230.12L106.73 235.89M92.02 217.44Q90.65 217.44 89.79 217.98Q88.93 218.51 88.42 219.26Q87.92 220.00 87.71 220.83Q87.50 221.67 87.44 222.20L96.43 222.20Q96.43 221.37 96.25 220.51Q96.07 219.64 95.62 218.96Q95.18 218.27 94.32 217.86Q93.45 217.44 92.02 217.44ZM127.44 240L109.11 240L109.11 232.20L111.61 232.20L111.61 217.98L109.11 217.98L109.11 210.24L121.79 210.24L123.15 213.93Q124.70 211.85 126.76 210.51Q128.81 209.17 131.67 209.17Q135.12 209.17 137.23 210.33Q139.35 211.49 140.51 213.36Q141.67 215.24 142.05 217.59Q142.44 219.94 142.44 222.26L142.44 232.20L145.24 232.20L145.24 240L130.24 240L130.24 223.75Q130.24 222.98 130.21 222.02Q130.18 221.07 129.88 220.24Q129.58 219.40 128.90 218.81Q128.21 218.21 126.90 218.21Q125.77 218.21 125.03 218.72Q124.29 219.23 123.87 220.03Q123.45 220.83 123.30 221.82Q123.15 222.80 123.15 223.75L123.15 232.20L127.44 232.20L127.44 240ZM147.02 210.24L150.24 210.24L150.24 204.76L161.19 201.25L161.19 210.24L166.85 210.24L166.85 217.98L161.19 217.98L161.19 228.57Q161.19 228.99 161.16 229.40Q161.13 229.82 161.13 230.30Q161.13 231.49 161.46 232.41Q161.79 233.33 163.10 233.33Q163.69 233.33 164.85 233.01Q166.01 232.68 166.85 232.32L166.85 239.94Q166.19 240.24 165.18 240.45Q164.17 240.65 163.10 240.77Q162.02 240.89 161.10 240.98Q160.18 241.07 159.64 241.07Q156.31 241.07 154.43 240.18Q152.56 239.29 151.67 237.68Q150.77 236.07 150.54 233.75Q150.30 231.43 150.24 228.57L150.24 217.98L147.02 217.98L147.02 210.24ZM210.54 208.87Q210.36 209.88 210.12 211.07Q209.88 212.26 209.64 213.36Q209.40 214.46 209.17 215.39Q208.93 216.31 208.81 216.85L202.56 240L190.12 240L183.45 216.25Q183.33 215.89 183.15 215.09Q182.98 214.29 182.80 213.27Q182.62 212.26 182.44 211.13Q182.26 210.00 182.20 208.87L181.96 208.87L181.96 232.32L185.36 232.32L185.36 240L169.23 240L169.23 232.32L172.44 232.32L172.44 206.07L169.29 206.07L169.29 198.39L191.85 198.39L197.86 220.65L203.57 198.39L226.25 198.39L226.25 206.07L222.98 206.07L222.98 232.26L226.25 232.26L226.25 240L207.44 240L207.44 232.26L210.83 232.26L210.83 208.87L210.54 208.87ZM259.11 235.89Q255.77 238.75 252.08 239.91Q248.39 241.07 243.75 241.07Q240.95 241.07 238.15 240.15Q235.36 239.23 233.12 237.29Q230.89 235.36 229.46 232.29Q228.04 229.23 228.04 224.94Q228.04 221.31 229.29 218.42Q230.54 215.54 232.68 213.51Q234.82 211.49 237.74 210.45Q240.65 209.40 244.05 209.40Q247.74 209.40 250.57 210.48Q253.39 211.55 255.30 213.45Q257.20 215.36 258.15 217.95Q259.11 220.54 259.11 223.57Q259.11 224.76 258.93 225.92Q258.75 227.08 258.39 228.10L239.64 228.10Q239.76 228.69 240.03 229.52Q240.30 230.36 240.95 231.13Q241.61 231.90 242.74 232.44Q243.87 232.98 245.77 232.98Q246.55 232.98 247.47 232.92Q248.39 232.86 249.46 232.56Q250.54 232.26 251.73 231.70Q252.92 231.13 254.11 230.12L259.11 235.89M244.40 217.44Q243.04 217.44 242.17 217.98Q241.31 218.51 240.80 219.26Q240.30 220.00 240.09 220.83Q239.88 221.67 239.82 222.20L248.81 222.20Q248.81 221.37 248.63 220.51Q248.45 219.64 248.01 218.96Q247.56 218.27 246.70 217.86Q245.83 217.44 244.40 217.44Z" fill="#ffffff" style="fill: rgb(255, 255, 255);"></path></g><g id="SvgjsG4453" rel="mainfill" name="slogan_text" xmlns:name="slogan_text" transform="translate(135.28999173641205,-104.80590286254883)" fill="#ffffff"><path d="M5.92 229.47L5.92 240L4.33 240L4.33 229.47L0.35 229.47L0.35 228.03L9.89 228.03L9.89 229.47L5.92 229.47ZM15.21 228.62Q15.21 229.14 14.98 229.33Q14.74 229.51 14.23 229.51Q13.69 229.51 13.48 229.28Q13.27 229.05 13.27 228.62Q13.27 228.16 13.50 227.95Q13.72 227.74 14.23 227.74Q14.76 227.74 14.98 227.94Q15.21 228.15 15.21 228.62M13.49 240L13.49 230.92L14.98 230.92L14.98 240L13.49 240ZM30.14 240L30.14 234.65Q30.14 233.30 30.04 232.87Q29.93 232.44 29.67 232.27Q29.41 232.10 28.89 232.10Q28.44 232.10 27.87 232.42Q27.31 232.74 26.40 233.59L26.40 240L24.92 240L24.92 234.65Q24.92 233.37 24.81 232.92Q24.71 232.47 24.46 232.29Q24.21 232.10 23.68 232.10Q23.19 232.10 22.54 232.49Q21.90 232.87 21.18 233.59L21.18 240L19.69 240L19.69 230.92L21.18 230.92L21.18 232.27Q21.77 231.63 22.49 231.15Q23.22 230.66 24.05 230.66Q24.97 230.66 25.52 231.09Q26.07 231.51 26.25 232.44Q26.96 231.69 27.69 231.17Q28.43 230.66 29.33 230.66Q30.16 230.66 30.66 231.01Q31.16 231.36 31.40 232.03Q31.63 232.69 31.63 233.94L31.63 240L30.14 240ZM37.36 235.64Q37.36 237.44 37.97 238.20Q38.58 238.97 39.94 238.97Q40.55 238.97 41.01 238.72Q41.47 238.46 41.89 237.89L43.12 238.65Q42.60 239.43 41.85 239.85Q41.11 240.27 39.84 240.27Q37.81 240.27 36.81 239.09Q35.82 237.91 35.82 235.54Q35.82 233.04 36.79 231.85Q37.76 230.66 39.73 230.66Q41.49 230.66 42.37 231.68Q43.26 232.70 43.26 234.81L43.26 235.64L37.36 235.64M41.80 234.47Q41.79 233.25 41.29 232.58Q40.79 231.90 39.67 231.90Q38.61 231.90 38.08 232.51Q37.55 233.12 37.37 234.47L41.80 234.47ZM60.76 237.34L60.76 240L59.22 240L59.22 237.34L53.06 237.34L53.06 235.80L59.29 228.03L60.76 228.03L60.76 235.96L62.41 235.96L62.41 237.34L60.76 237.34M59.22 230.31L54.63 235.96L59.22 235.96L59.22 230.31ZM74.30 235.64Q74.30 237.44 74.92 238.20Q75.53 238.97 76.89 238.97Q77.50 238.97 77.95 238.72Q78.41 238.46 78.84 237.89L80.07 238.65Q79.55 239.43 78.80 239.85Q78.06 240.27 76.79 240.27Q74.76 240.27 73.76 239.09Q72.76 237.91 72.76 235.54Q72.76 233.04 73.74 231.85Q74.71 230.66 76.67 230.66Q78.44 230.66 79.32 231.68Q80.20 232.70 80.20 234.81L80.20 235.64L74.30 235.64M78.75 234.47Q78.73 233.25 78.24 232.58Q77.74 231.90 76.62 231.90Q75.56 231.90 75.03 232.51Q74.49 233.12 74.32 234.47L78.75 234.47ZM87.96 240L86.49 240L83.32 230.92L84.92 230.92L87.27 238.05L89.61 230.92L91.15 230.92L87.96 240ZM95.92 235.64Q95.92 237.44 96.54 238.20Q97.15 238.97 98.51 238.97Q99.11 238.97 99.57 238.72Q100.03 238.46 100.46 237.89L101.68 238.65Q101.16 239.43 100.42 239.85Q99.68 240.27 98.40 240.27Q96.38 240.27 95.38 239.09Q94.38 237.91 94.38 235.54Q94.38 233.04 95.35 231.85Q96.33 230.66 98.29 230.66Q100.06 230.66 100.94 231.68Q101.82 232.70 101.82 234.81L101.82 235.64L95.92 235.64M100.37 234.47Q100.35 233.25 99.85 232.58Q99.36 231.90 98.24 231.90Q97.18 231.90 96.64 232.51Q96.11 233.12 95.94 234.47L100.37 234.47ZM111.67 240L111.67 234.65Q111.67 233.35 111.54 232.92Q111.41 232.49 111.11 232.30Q110.82 232.10 110.26 232.10Q109.69 232.10 108.92 232.53Q108.16 232.97 107.45 233.59L107.45 240L105.97 240L105.97 230.92L107.45 230.92L107.45 232.27Q108.09 231.64 108.92 231.15Q109.76 230.66 110.61 230.66Q111.93 230.66 112.54 231.41Q113.16 232.16 113.16 233.94L113.16 240L111.67 240ZM122.33 240Q121.47 240.27 120.62 240.27Q119.24 240.27 118.63 239.54Q118.03 238.81 118.03 237.26L118.03 232.17L116.74 232.17L116.74 230.92L118.03 230.92L118.03 228.40L119.52 228.40L119.52 230.92L121.82 230.92L121.82 232.17L119.52 232.17L119.52 236.97Q119.52 238.07 119.74 238.55Q119.96 239.02 120.72 239.02Q121.38 239.02 121.94 238.78L122.33 240Z" fill="#ffffff" style="fill: rgb(255, 255, 255);"></path></g><g id="SvgjsG4454" rel="mainfill" name="symbol" xmlns:name="symbol_mainfill" transform="translate(74.44084510803222,-29.700000000000003) scale(1.1)" fill="#ffffff"><path d="M42.378,45.654c0.031-0.523-0.011-1.186-0.186-2.052c-0.402-1.984-0.837-4.045-0.837-4.045S41,41.633,40.677,43.632  c-0.112,0.694-0.148,1.265-0.133,1.737c-0.145,0.067-0.276,0.155-0.396,0.258c-0.459-0.157-0.986-0.297-1.602-0.398  c-1.997-0.33-8.978-2.479-8.978-2.479s6.714,2.894,8.468,3.906c0.584,0.337,1.125,0.584,1.612,0.756  c0.219,0.676,0.848,1.169,1.597,1.169c0.932,0,1.686-0.755,1.686-1.685C42.932,46.402,42.716,45.962,42.378,45.654z M41.246,46.211  c0.082,0,0.159,0.021,0.232,0.047c0.12,0.081,0.222,0.163,0.313,0.244c0.082,0.113,0.141,0.245,0.141,0.395  c0,0.04-0.016,0.074-0.023,0.112c-0.056,0.322-0.325,0.572-0.663,0.572c-0.378,0-0.686-0.307-0.686-0.685  c0-0.165,0.066-0.31,0.163-0.428C40.85,46.315,41.033,46.211,41.246,46.211z" fill="#ffffff" style="fill: rgb(255, 255, 255);"></path><path d="M41.246,38.785c-0.276,0-0.5-0.224-0.5-0.5v-3.097c0-0.276,0.224-0.5,0.5-0.5s0.5,0.224,0.5,0.5v3.097  C41.746,38.561,41.522,38.785,41.246,38.785z" fill="#ffffff" style="fill: rgb(255, 255, 255);"></path><path d="M41.246,59.307c-0.276,0-0.5-0.224-0.5-0.5V55.71c0-0.276,0.224-0.5,0.5-0.5s0.5,0.224,0.5,0.5v3.097  C41.746,59.083,41.522,59.307,41.246,59.307z" fill="#ffffff" style="fill: rgb(255, 255, 255);"></path><path d="M32.604,47.496h-3.097c-0.276,0-0.5-0.224-0.5-0.5s0.224-0.5,0.5-0.5h3.097c0.276,0,0.5,0.224,0.5,0.5  S32.88,47.496,32.604,47.496z" fill="#ffffff" style="fill: rgb(255, 255, 255);"></path><path d="M53.127,47.496h-3.098c-0.276,0-0.5-0.224-0.5-0.5s0.224-0.5,0.5-0.5h3.098c0.276,0,0.5,0.224,0.5,0.5  S53.403,47.496,53.127,47.496z" fill="#ffffff" style="fill: rgb(255, 255, 255);"></path><path d="M94.455,54.364c0-1.658-0.911-2.715-1.643-3.564c-0.555-0.644-0.895-1.061-0.895-1.515c0-0.504,0.368-0.874,1.02-1.485  c0.809-0.759,1.916-1.798,1.916-3.611c0-2.045-1.172-3.155-2.026-3.965c-0.574-0.544-0.899-0.869-0.899-1.228  c0-0.503,0.173-0.773,0.486-1.263c0.465-0.727,1.103-1.723,1.103-3.728c0-2.658-2.453-3.773-3.75-3.992L48,30.006v-0.398  C48,29.272,47.728,29,47.393,29H35.607C35.272,29,35,29.272,35,29.607v0.396L21,30v-3H4v40h17v-3h14v0.393  C35,64.729,35.272,65,35.607,65h11.785C47.728,65,48,64.729,48,64.393V64h2.19c0.179,0.332,0.467,0.992,0.766,2.187  c0.697,2.789,3.749,3.547,4.349,3.67c3.621,1.292,20.791,7.374,23.253,7.374c3.525,0,5.304-5.148,5.878-7.23h5.029l0.248-0.031  c1.467-0.376,4.277-1.953,4.417-5.233c0.068-1.616-0.69-2.442-1.3-3.105c-0.512-0.558-0.882-0.961-0.882-1.903  c0-0.434,0.299-0.814,0.827-1.449C93.484,57.424,94.455,56.256,94.455,54.364z M19,30v27H6V29h13V30z M35,62H21V32h14v1.037  c-5.305,2.399-9.003,7.726-9.003,13.928c0,6.201,3.698,11.527,9.003,13.927V62z M41.288,60.255c-2.273,0-4.415-0.575-6.288-1.586  c-4.165-2.247-7.003-6.649-7.003-11.704c0-5.055,2.838-9.458,7.003-11.705c1.874-1.011,4.015-1.586,6.288-1.586  c2.45,0,4.739,0.678,6.712,1.838c3.93,2.312,6.58,6.574,6.58,11.453c0,4.879-2.65,9.141-6.58,11.452  C46.027,59.577,43.738,60.255,41.288,60.255z M91.237,56.999c-0.604,0.727-1.289,1.55-1.289,2.728c0,1.722,0.814,2.608,1.409,3.256  c0.504,0.549,0.808,0.88,0.774,1.669c-0.1,2.343-2.294,3.183-2.811,3.349H75.844c0,0-0.982,0.078-0.982,1c0,1,1.139,1,1.139,1h6.351  c-0.696,2.223-2.105,5.23-3.793,5.23c-1.645,0-14.767-4.468-22.652-7.283l-0.169-0.045c-0.024-0.004-2.403-0.452-2.841-2.2  c-0.618-2.476-1.283-3.248-1.54-3.466L51.076,62H48v-1.313c5.076-2.487,8.58-7.688,8.58-13.723c0-6.035-3.504-11.237-8.58-13.724V32  h41.502c0.359,0.08,2.015,0.528,2.015,2.006c0,1.419-0.383,2.017-0.787,2.649c-0.376,0.587-0.802,1.252-0.802,2.341  c0,1.236,0.81,2.003,1.523,2.68c0.753,0.713,1.402,1.329,1.402,2.514c0,0.901-0.488,1.405-1.284,2.152  c-0.735,0.69-1.651,1.549-1.651,2.943c0,1.219,0.732,2.069,1.379,2.82c0.622,0.721,1.158,1.344,1.158,2.259  C92.455,55.533,91.891,56.213,91.237,56.999z" fill="#ffffff" style="fill: rgb(255, 255, 255);"></path></g></svg>