<svg xmlns="http://www.w3.org/2000/svg" version="1.1" xmlns:xlink="http://www.w3.org/1999/xlink" xmlns:svgjs="http://svgjs.com/svgjs" height="157.30874824523926" width="255.65084838867188"><defs id="SvgjsDefs1674"></defs><g id="SvgjsG1675" rel="mainfill" name="main_text" xmlns:name="main_text" transform="translate(-4.630000114440918,-112.00124931335449)" fill="#292929"><path d="M15.31 198.70L31.19 198.70C33.61 198.70 34.18 196.56 34.18 194.42C34.18 192.29 33.54 190.15 31.19 190.15L11.61 190.15C8.05 190.15 4.63 191.08 4.63 196.42L4.63 233.73C4.63 239.07 8.05 240 11.61 240L31.19 240C33.54 240 34.18 237.86 34.18 235.73C34.18 233.59 33.61 231.45 31.19 231.45L15.31 231.45C14.46 231.45 14.10 231.17 14.10 230.24L14.10 218.49L28.56 218.49C30.91 218.49 31.55 216.36 31.55 214.22C31.55 212.08 30.91 209.95 28.56 209.95L14.10 209.95L14.10 199.91C14.10 198.98 14.46 198.70 15.31 198.70ZM48.14 205.75C47.36 202.97 44.44 202.33 42.09 202.33C39.74 202.33 37.10 203.04 37.96 205.75L48.07 237.22C48.92 239.93 51.84 240.64 54.19 240.64C56.47 240.64 59.39 239.93 60.25 237.22L70.36 205.75C71.21 203.04 68.58 202.33 66.23 202.33C63.95 202.33 61.03 202.97 60.25 205.75L55.69 221.63C55.05 223.83 54.76 226.40 54.19 228.61C53.62 226.40 53.27 223.83 52.63 221.63ZM91.08 209.52C94.36 209.52 96.71 211.59 96.99 215.36C97.06 216.50 96.42 216.93 95.71 216.93L84.03 216.93C84.53 212.44 86.95 209.52 91.08 209.52ZM104.97 231.60C105.47 230.17 105.18 228.11 102.05 227.75C99.34 227.47 97.56 228.04 96.85 229.39C95.57 231.81 94.14 233.16 91.15 233.16C85.31 233.23 83.89 228.25 83.75 223.55L99.49 223.55C103.83 223.55 105.89 222.20 105.97 217.43C106.04 208.38 100.41 202.19 90.65 202.19C78.62 202.19 74.13 211.30 74.13 221.34C74.20 231.74 79.12 240.93 90.94 241.00C97.78 241.00 103.12 237.65 104.97 231.60ZM121.99 205.82C121.63 203.04 119.99 202.40 117.36 202.40C115.22 202.40 113.16 203.25 113.16 205.75L113.16 237.22C113.16 239.93 115.58 240.64 117.93 240.64C120.35 240.64 122.70 239.93 122.70 237.22L122.70 220.35C122.70 215.36 124.55 210.45 130.53 210.45C134.31 210.45 135.16 214.01 135.16 216.71L135.16 237.22C135.16 239.93 137.58 240.64 139.93 240.64C142.36 240.64 144.71 239.93 144.71 237.22L144.71 214.65C144.71 205.89 140.29 201.90 132.67 201.90C129.61 201.90 125.34 202.68 122.13 206.67ZM155.39 196.77L155.39 203.11L153.11 203.11C150.40 203.11 149.69 205.03 149.69 206.96C149.69 208.88 150.40 210.80 153.11 210.80L155.39 210.80L155.39 227.89C155.39 235.51 158.31 240.64 167.71 240.64C169.42 240.64 171.34 240.43 172.69 239.86C174.40 239.07 174.83 237.65 174.83 235.87C174.83 233.02 173.90 231.45 170.77 231.81C166.43 232.31 164.93 230.60 164.93 227.32L164.93 210.80L168.92 210.80C171.62 210.80 172.34 208.88 172.34 206.96C172.34 205.03 171.62 203.11 168.92 203.11L164.93 203.11L164.93 196.77C164.93 194.07 162.58 193.36 160.16 193.36C157.81 193.36 155.39 194.07 155.39 196.77ZM216.92 189.79C214.99 189.79 213.78 190.36 212.86 191.72C211.72 193.50 200.96 214.43 200.96 214.43C200.96 214.43 190.21 193.50 189.00 191.72C188.07 190.36 186.86 189.79 185.01 189.79C182.73 189.79 180.53 190.65 180.53 193.21L180.53 237.29C180.53 239.93 182.88 240.64 185.08 240.64C187.29 240.64 189.71 239.93 189.71 237.29L189.71 208.45C190.42 210.52 191.49 212.73 192.42 214.58L197.83 225.40C198.47 226.61 199.68 227.04 200.96 227.04C202.17 227.04 203.39 226.61 204.03 225.40L209.51 214.58C210.36 212.73 211.50 210.52 212.14 208.45L212.14 237.29C212.14 239.93 214.57 240.64 216.77 240.64C218.98 240.64 221.33 239.93 221.33 237.29L221.33 193.21C221.33 190.65 219.19 189.79 216.92 189.79ZM245.40 209.52C248.68 209.52 251.03 211.59 251.31 215.36C251.38 216.50 250.74 216.93 250.03 216.93L238.35 216.93C238.85 212.44 241.27 209.52 245.40 209.52ZM259.29 231.60C259.79 230.17 259.50 228.11 256.37 227.75C253.66 227.47 251.88 228.04 251.17 229.39C249.89 231.81 248.46 233.16 245.47 233.16C239.63 233.23 238.21 228.25 238.07 223.55L253.80 223.55C258.15 223.55 260.21 222.20 260.28 217.43C260.36 208.38 254.73 202.19 244.97 202.19C232.94 202.19 228.45 211.30 228.45 221.34C228.52 231.74 233.44 240.93 245.26 241.00C252.10 241.00 257.44 237.65 259.29 231.60Z" fill="#292929" style="fill: rgb(41, 41, 41);"></path></g><g id="SvgjsG1676" rel="mainfill" name="slogan_text" xmlns:name="slogan_text" transform="translate(145.53084442019463,-82.88125419616699)" fill="#292929"><path d="M7.15 223.43L7.15 221.88L0.03 221.88L0.03 223.43L2.74 223.43L2.74 240L4.43 240L4.43 223.43ZM11.79 224.05C11.79 223.43 11.30 222.88 10.68 222.88C10.03 222.88 9.54 223.40 9.54 224.05C9.54 224.68 10.05 225.17 10.68 225.17C11.30 225.17 11.79 224.68 11.79 224.05ZM11.44 240L11.44 227.86L9.89 227.86L9.89 240ZM26.57 230.68C26.57 228.94 26.06 227.66 24.10 227.66C22.93 227.66 22.25 228.21 21.60 229.08C21.14 228.18 20.43 227.66 19.37 227.66C18.39 227.66 17.66 228.18 17.01 228.86L17.01 227.86L15.49 227.86L15.49 240L17.01 240L17.01 232.47C17.01 231.06 17.09 228.91 18.96 228.91C20.16 228.91 20.24 230.14 20.24 231.03L20.24 240L21.79 240L21.79 232.23C21.79 230.90 21.87 228.91 23.64 228.91C24.89 228.91 25.05 230.03 25.05 231.01L25.05 240L26.57 240ZM35.24 235.87C35.24 236.90 34.99 238.75 33.66 238.75C31.92 238.75 31.73 235.73 31.73 234.51L31.73 234.24L36.87 234.24C36.87 234.00 36.90 233.72 36.90 233.48C36.90 231.33 36.46 227.66 33.61 227.66C30.67 227.66 30.19 231.79 30.19 233.97C30.19 236.30 30.57 240.19 33.72 240.19C36.11 240.19 36.71 237.83 36.79 235.87ZM31.76 232.94C31.84 231.82 32.03 229.08 33.64 229.08C35.19 229.08 35.29 231.85 35.38 232.94ZM55.62 235.14L55.62 233.59L54.26 233.59L54.26 221.88L52.60 221.88L47.85 233.42L47.85 235.14L52.60 235.14L52.60 240L54.26 240L54.26 235.14ZM49.42 233.59L51.76 227.66C52.17 226.61 52.49 225.60 52.79 224.54C52.60 226.36 52.57 228.10 52.57 229.92C52.57 231.14 52.60 232.37 52.60 233.59ZM71.78 235.87C71.78 236.90 71.54 238.75 70.21 238.75C68.47 238.75 68.28 235.73 68.28 234.51L68.28 234.24L73.41 234.24C73.41 234.00 73.44 233.72 73.44 233.48C73.44 231.33 73.01 227.66 70.15 227.66C67.22 227.66 66.73 231.79 66.73 233.97C66.73 236.30 67.11 240.19 70.26 240.19C72.65 240.19 73.25 237.83 73.33 235.87ZM68.31 232.94C68.39 231.82 68.58 229.08 70.18 229.08C71.73 229.08 71.84 231.85 71.92 232.94ZM83.00 227.86L81.43 227.86L79.93 235.16C79.74 236.01 79.64 236.88 79.50 237.72C79.39 236.85 79.25 235.98 79.06 235.11L77.46 227.86L75.89 227.86L78.66 240L80.31 240ZM90.50 235.87C90.50 236.90 90.26 238.75 88.93 238.75C87.19 238.75 87.00 235.73 87.00 234.51L87.00 234.24L92.13 234.24C92.13 234.00 92.16 233.72 92.16 233.48C92.16 231.33 91.73 227.66 88.87 227.66C85.94 227.66 85.45 231.79 85.45 233.97C85.45 236.30 85.83 240.19 88.98 240.19C91.37 240.19 91.97 237.83 92.05 235.87ZM87.03 232.94C87.11 231.82 87.30 229.08 88.90 229.08C90.45 229.08 90.56 231.85 90.64 232.94ZM102.02 240L102.02 231.01C102.02 229.35 101.70 227.66 99.66 227.66C98.71 227.66 97.92 228.15 97.30 228.83L97.30 227.86L95.77 227.86L95.77 240L97.30 240L97.30 231.82C97.30 231.09 97.30 230.33 97.70 229.70C98.00 229.19 98.57 228.91 99.14 228.91C100.56 228.91 100.50 230.27 100.50 231.28L100.50 240ZM110.12 229.27L110.12 227.86L108.08 227.86L108.08 224.40L106.56 224.40L106.56 227.86L105.26 227.86L105.26 229.27L106.56 229.27L106.56 240L108.08 240L108.08 229.27Z" fill="#292929" style="fill: rgb(41, 41, 41);"></path></g><g id="SvgjsG1677" rel="mainfill" name="symbol" xmlns:name="symbol_mainfill" transform="translate(66.04229640960693,-33.75) scale(1.25)" fill="#292929"><path d="M42.378,45.654c0.031-0.523-0.011-1.186-0.186-2.052c-0.402-1.984-0.837-4.045-0.837-4.045S41,41.633,40.677,43.632  c-0.112,0.694-0.148,1.265-0.133,1.737c-0.145,0.067-0.276,0.155-0.396,0.258c-0.459-0.157-0.986-0.297-1.602-0.398  c-1.997-0.33-8.978-2.479-8.978-2.479s6.714,2.894,8.468,3.906c0.584,0.337,1.125,0.584,1.612,0.756  c0.219,0.676,0.848,1.169,1.597,1.169c0.932,0,1.686-0.755,1.686-1.685C42.932,46.402,42.716,45.962,42.378,45.654z M41.246,46.211  c0.082,0,0.159,0.021,0.232,0.047c0.12,0.081,0.222,0.163,0.313,0.244c0.082,0.113,0.141,0.245,0.141,0.395  c0,0.04-0.016,0.074-0.023,0.112c-0.056,0.322-0.325,0.572-0.663,0.572c-0.378,0-0.686-0.307-0.686-0.685  c0-0.165,0.066-0.31,0.163-0.428C40.85,46.315,41.033,46.211,41.246,46.211z" fill="#292929" style="fill: rgb(41, 41, 41);"></path><path d="M41.246,38.785c-0.276,0-0.5-0.224-0.5-0.5v-3.097c0-0.276,0.224-0.5,0.5-0.5s0.5,0.224,0.5,0.5v3.097  C41.746,38.561,41.522,38.785,41.246,38.785z" fill="#292929" style="fill: rgb(41, 41, 41);"></path><path d="M41.246,59.307c-0.276,0-0.5-0.224-0.5-0.5V55.71c0-0.276,0.224-0.5,0.5-0.5s0.5,0.224,0.5,0.5v3.097  C41.746,59.083,41.522,59.307,41.246,59.307z" fill="#292929" style="fill: rgb(41, 41, 41);"></path><path d="M32.604,47.496h-3.097c-0.276,0-0.5-0.224-0.5-0.5s0.224-0.5,0.5-0.5h3.097c0.276,0,0.5,0.224,0.5,0.5  S32.88,47.496,32.604,47.496z" fill="#292929" style="fill: rgb(41, 41, 41);"></path><path d="M53.127,47.496h-3.098c-0.276,0-0.5-0.224-0.5-0.5s0.224-0.5,0.5-0.5h3.098c0.276,0,0.5,0.224,0.5,0.5  S53.403,47.496,53.127,47.496z" fill="#292929" style="fill: rgb(41, 41, 41);"></path><path d="M94.455,54.364c0-1.658-0.911-2.715-1.643-3.564c-0.555-0.644-0.895-1.061-0.895-1.515c0-0.504,0.368-0.874,1.02-1.485  c0.809-0.759,1.916-1.798,1.916-3.611c0-2.045-1.172-3.155-2.026-3.965c-0.574-0.544-0.899-0.869-0.899-1.228  c0-0.503,0.173-0.773,0.486-1.263c0.465-0.727,1.103-1.723,1.103-3.728c0-2.658-2.453-3.773-3.75-3.992L48,30.006v-0.398  C48,29.272,47.728,29,47.393,29H35.607C35.272,29,35,29.272,35,29.607v0.396L21,30v-3H4v40h17v-3h14v0.393  C35,64.729,35.272,65,35.607,65h11.785C47.728,65,48,64.729,48,64.393V64h2.19c0.179,0.332,0.467,0.992,0.766,2.187  c0.697,2.789,3.749,3.547,4.349,3.67c3.621,1.292,20.791,7.374,23.253,7.374c3.525,0,5.304-5.148,5.878-7.23h5.029l0.248-0.031  c1.467-0.376,4.277-1.953,4.417-5.233c0.068-1.616-0.69-2.442-1.3-3.105c-0.512-0.558-0.882-0.961-0.882-1.903  c0-0.434,0.299-0.814,0.827-1.449C93.484,57.424,94.455,56.256,94.455,54.364z M19,30v27H6V29h13V30z M35,62H21V32h14v1.037  c-5.305,2.399-9.003,7.726-9.003,13.928c0,6.201,3.698,11.527,9.003,13.927V62z M41.288,60.255c-2.273,0-4.415-0.575-6.288-1.586  c-4.165-2.247-7.003-6.649-7.003-11.704c0-5.055,2.838-9.458,7.003-11.705c1.874-1.011,4.015-1.586,6.288-1.586  c2.45,0,4.739,0.678,6.712,1.838c3.93,2.312,6.58,6.574,6.58,11.453c0,4.879-2.65,9.141-6.58,11.452  C46.027,59.577,43.738,60.255,41.288,60.255z M91.237,56.999c-0.604,0.727-1.289,1.55-1.289,2.728c0,1.722,0.814,2.608,1.409,3.256  c0.504,0.549,0.808,0.88,0.774,1.669c-0.1,2.343-2.294,3.183-2.811,3.349H75.844c0,0-0.982,0.078-0.982,1c0,1,1.139,1,1.139,1h6.351  c-0.696,2.223-2.105,5.23-3.793,5.23c-1.645,0-14.767-4.468-22.652-7.283l-0.169-0.045c-0.024-0.004-2.403-0.452-2.841-2.2  c-0.618-2.476-1.283-3.248-1.54-3.466L51.076,62H48v-1.313c5.076-2.487,8.58-7.688,8.58-13.723c0-6.035-3.504-11.237-8.58-13.724V32  h41.502c0.359,0.08,2.015,0.528,2.015,2.006c0,1.419-0.383,2.017-0.787,2.649c-0.376,0.587-0.802,1.252-0.802,2.341  c0,1.236,0.81,2.003,1.523,2.68c0.753,0.713,1.402,1.329,1.402,2.514c0,0.901-0.488,1.405-1.284,2.152  c-0.735,0.69-1.651,1.549-1.651,2.943c0,1.219,0.732,2.069,1.379,2.82c0.622,0.721,1.158,1.344,1.158,2.259  C92.455,55.533,91.891,56.213,91.237,56.999z" fill="#292929" style="fill: rgb(41, 41, 41);"></path></g></svg>