<svg xmlns="http://www.w3.org/2000/svg" version="1.1" xmlns:xlink="http://www.w3.org/1999/xlink" xmlns:svgjs="http://svgjs.com/svgjs" height="151.52874946594238" width="255.65084838867188"><defs id="SvgjsDefs1570"></defs><g id="SvgjsG1571" rel="mainfill" name="main_text" xmlns:name="main_text" transform="translate(-4.630000114440918,-112.00124931335449)" fill="#f7f0df"><path d="M15.31 198.70L31.19 198.70C33.61 198.70 34.18 196.56 34.18 194.42C34.18 192.29 33.54 190.15 31.19 190.15L11.61 190.15C8.05 190.15 4.63 191.08 4.63 196.42L4.63 233.73C4.63 239.07 8.05 240 11.61 240L31.19 240C33.54 240 34.18 237.86 34.18 235.73C34.18 233.59 33.61 231.45 31.19 231.45L15.31 231.45C14.46 231.45 14.10 231.17 14.10 230.24L14.10 218.49L28.56 218.49C30.91 218.49 31.55 216.36 31.55 214.22C31.55 212.08 30.91 209.95 28.56 209.95L14.10 209.95L14.10 199.91C14.10 198.98 14.46 198.70 15.31 198.70ZM48.14 205.75C47.36 202.97 44.44 202.33 42.09 202.33C39.74 202.33 37.10 203.04 37.96 205.75L48.07 237.22C48.92 239.93 51.84 240.64 54.19 240.64C56.47 240.64 59.39 239.93 60.25 237.22L70.36 205.75C71.21 203.04 68.58 202.33 66.23 202.33C63.95 202.33 61.03 202.97 60.25 205.75L55.69 221.63C55.05 223.83 54.76 226.40 54.19 228.61C53.62 226.40 53.27 223.83 52.63 221.63ZM91.08 209.52C94.36 209.52 96.71 211.59 96.99 215.36C97.06 216.50 96.42 216.93 95.71 216.93L84.03 216.93C84.53 212.44 86.95 209.52 91.08 209.52ZM104.97 231.60C105.47 230.17 105.18 228.11 102.05 227.75C99.34 227.47 97.56 228.04 96.85 229.39C95.57 231.81 94.14 233.16 91.15 233.16C85.31 233.23 83.89 228.25 83.75 223.55L99.49 223.55C103.83 223.55 105.89 222.20 105.97 217.43C106.04 208.38 100.41 202.19 90.65 202.19C78.62 202.19 74.13 211.30 74.13 221.34C74.20 231.74 79.12 240.93 90.94 241.00C97.78 241.00 103.12 237.65 104.97 231.60ZM121.99 205.82C121.63 203.04 119.99 202.40 117.36 202.40C115.22 202.40 113.16 203.25 113.16 205.75L113.16 237.22C113.16 239.93 115.58 240.64 117.93 240.64C120.35 240.64 122.70 239.93 122.70 237.22L122.70 220.35C122.70 215.36 124.55 210.45 130.53 210.45C134.31 210.45 135.16 214.01 135.16 216.71L135.16 237.22C135.16 239.93 137.58 240.64 139.93 240.64C142.36 240.64 144.71 239.93 144.71 237.22L144.71 214.65C144.71 205.89 140.29 201.90 132.67 201.90C129.61 201.90 125.34 202.68 122.13 206.67ZM155.39 196.77L155.39 203.11L153.11 203.11C150.40 203.11 149.69 205.03 149.69 206.96C149.69 208.88 150.40 210.80 153.11 210.80L155.39 210.80L155.39 227.89C155.39 235.51 158.31 240.64 167.71 240.64C169.42 240.64 171.34 240.43 172.69 239.86C174.40 239.07 174.83 237.65 174.83 235.87C174.83 233.02 173.90 231.45 170.77 231.81C166.43 232.31 164.93 230.60 164.93 227.32L164.93 210.80L168.92 210.80C171.62 210.80 172.34 208.88 172.34 206.96C172.34 205.03 171.62 203.11 168.92 203.11L164.93 203.11L164.93 196.77C164.93 194.07 162.58 193.36 160.16 193.36C157.81 193.36 155.39 194.07 155.39 196.77ZM216.92 189.79C214.99 189.79 213.78 190.36 212.86 191.72C211.72 193.50 200.96 214.43 200.96 214.43C200.96 214.43 190.21 193.50 189.00 191.72C188.07 190.36 186.86 189.79 185.01 189.79C182.73 189.79 180.53 190.65 180.53 193.21L180.53 237.29C180.53 239.93 182.88 240.64 185.08 240.64C187.29 240.64 189.71 239.93 189.71 237.29L189.71 208.45C190.42 210.52 191.49 212.73 192.42 214.58L197.83 225.40C198.47 226.61 199.68 227.04 200.96 227.04C202.17 227.04 203.39 226.61 204.03 225.40L209.51 214.58C210.36 212.73 211.50 210.52 212.14 208.45L212.14 237.29C212.14 239.93 214.57 240.64 216.77 240.64C218.98 240.64 221.33 239.93 221.33 237.29L221.33 193.21C221.33 190.65 219.19 189.79 216.92 189.79ZM245.40 209.52C248.68 209.52 251.03 211.59 251.31 215.36C251.38 216.50 250.74 216.93 250.03 216.93L238.35 216.93C238.85 212.44 241.27 209.52 245.40 209.52ZM259.29 231.60C259.79 230.17 259.50 228.11 256.37 227.75C253.66 227.47 251.88 228.04 251.17 229.39C249.89 231.81 248.46 233.16 245.47 233.16C239.63 233.23 238.21 228.25 238.07 223.55L253.80 223.55C258.15 223.55 260.21 222.20 260.28 217.43C260.36 208.38 254.73 202.19 244.97 202.19C232.94 202.19 228.45 211.30 228.45 221.34C228.52 231.74 233.44 240.93 245.26 241.00C252.10 241.00 257.44 237.65 259.29 231.60Z" fill="#f7f0df" style="fill: rgb(247, 240, 223);"></path></g><g id="SvgjsG1572" rel="mainfill" name="slogan_text" xmlns:name="slogan_text" transform="translate(133.32084500789642,-88.74125480651855)" fill="#f7f0df"><path d="M5.92 229.47L5.92 240L4.33 240L4.33 229.47L0.35 229.47L0.35 228.03L9.89 228.03L9.89 229.47L5.92 229.47ZM15.21 228.62Q15.21 229.14 14.98 229.33Q14.74 229.51 14.23 229.51Q13.69 229.51 13.48 229.28Q13.27 229.05 13.27 228.62Q13.27 228.16 13.50 227.95Q13.72 227.74 14.23 227.74Q14.76 227.74 14.98 227.94Q15.21 228.15 15.21 228.62M13.49 240L13.49 230.92L14.98 230.92L14.98 240L13.49 240ZM30.14 240L30.14 234.65Q30.14 233.30 30.04 232.87Q29.93 232.44 29.67 232.27Q29.41 232.10 28.89 232.10Q28.44 232.10 27.87 232.42Q27.31 232.74 26.40 233.59L26.40 240L24.92 240L24.92 234.65Q24.92 233.37 24.81 232.92Q24.71 232.47 24.46 232.29Q24.21 232.10 23.68 232.10Q23.19 232.10 22.54 232.49Q21.90 232.87 21.18 233.59L21.18 240L19.69 240L19.69 230.92L21.18 230.92L21.18 232.27Q21.77 231.63 22.49 231.15Q23.22 230.66 24.05 230.66Q24.97 230.66 25.52 231.09Q26.07 231.51 26.25 232.44Q26.96 231.69 27.69 231.17Q28.43 230.66 29.33 230.66Q30.16 230.66 30.66 231.01Q31.16 231.36 31.40 232.03Q31.63 232.69 31.63 233.94L31.63 240L30.14 240ZM37.36 235.64Q37.36 237.44 37.97 238.20Q38.58 238.97 39.94 238.97Q40.55 238.97 41.01 238.72Q41.47 238.46 41.89 237.89L43.12 238.65Q42.60 239.43 41.85 239.85Q41.11 240.27 39.84 240.27Q37.81 240.27 36.81 239.09Q35.82 237.91 35.82 235.54Q35.82 233.04 36.79 231.85Q37.76 230.66 39.73 230.66Q41.49 230.66 42.37 231.68Q43.26 232.70 43.26 234.81L43.26 235.64L37.36 235.64M41.80 234.47Q41.79 233.25 41.29 232.58Q40.79 231.90 39.67 231.90Q38.61 231.90 38.08 232.51Q37.55 233.12 37.37 234.47L41.80 234.47ZM60.76 237.34L60.76 240L59.22 240L59.22 237.34L53.06 237.34L53.06 235.80L59.29 228.03L60.76 228.03L60.76 235.96L62.41 235.96L62.41 237.34L60.76 237.34M59.22 230.31L54.63 235.96L59.22 235.96L59.22 230.31ZM74.30 235.64Q74.30 237.44 74.92 238.20Q75.53 238.97 76.89 238.97Q77.50 238.97 77.95 238.72Q78.41 238.46 78.84 237.89L80.07 238.65Q79.55 239.43 78.80 239.85Q78.06 240.27 76.79 240.27Q74.76 240.27 73.76 239.09Q72.76 237.91 72.76 235.54Q72.76 233.04 73.74 231.85Q74.71 230.66 76.67 230.66Q78.44 230.66 79.32 231.68Q80.20 232.70 80.20 234.81L80.20 235.64L74.30 235.64M78.75 234.47Q78.73 233.25 78.24 232.58Q77.74 231.90 76.62 231.90Q75.56 231.90 75.03 232.51Q74.49 233.12 74.32 234.47L78.75 234.47ZM87.96 240L86.49 240L83.32 230.92L84.92 230.92L87.27 238.05L89.61 230.92L91.15 230.92L87.96 240ZM95.92 235.64Q95.92 237.44 96.54 238.20Q97.15 238.97 98.51 238.97Q99.11 238.97 99.57 238.72Q100.03 238.46 100.46 237.89L101.68 238.65Q101.16 239.43 100.42 239.85Q99.68 240.27 98.40 240.27Q96.38 240.27 95.38 239.09Q94.38 237.91 94.38 235.54Q94.38 233.04 95.35 231.85Q96.33 230.66 98.29 230.66Q100.06 230.66 100.94 231.68Q101.82 232.70 101.82 234.81L101.82 235.64L95.92 235.64M100.37 234.47Q100.35 233.25 99.85 232.58Q99.36 231.90 98.24 231.90Q97.18 231.90 96.64 232.51Q96.11 233.12 95.94 234.47L100.37 234.47ZM111.67 240L111.67 234.65Q111.67 233.35 111.54 232.92Q111.41 232.49 111.11 232.30Q110.82 232.10 110.26 232.10Q109.69 232.10 108.92 232.53Q108.16 232.97 107.45 233.59L107.45 240L105.97 240L105.97 230.92L107.45 230.92L107.45 232.27Q108.09 231.64 108.92 231.15Q109.76 230.66 110.61 230.66Q111.93 230.66 112.54 231.41Q113.16 232.16 113.16 233.94L113.16 240L111.67 240ZM122.33 240Q121.47 240.27 120.62 240.27Q119.24 240.27 118.63 239.54Q118.03 238.81 118.03 237.26L118.03 232.17L116.74 232.17L116.74 230.92L118.03 230.92L118.03 228.40L119.52 228.40L119.52 230.92L121.82 230.92L121.82 232.17L119.52 232.17L119.52 236.97Q119.52 238.07 119.74 238.55Q119.96 239.02 120.72 239.02Q121.38 239.02 121.94 238.78L122.33 240Z" fill="#f7f0df" style="fill: rgb(247, 240, 223);"></path></g><g id="SvgjsG1573" rel="mainfill" name="symbol" xmlns:name="symbol_mainfill" transform="translate(66.04229640960693,-33.75) scale(1.25)" fill="#f7f0df"><path d="M42.378,45.654c0.031-0.523-0.011-1.186-0.186-2.052c-0.402-1.984-0.837-4.045-0.837-4.045S41,41.633,40.677,43.632  c-0.112,0.694-0.148,1.265-0.133,1.737c-0.145,0.067-0.276,0.155-0.396,0.258c-0.459-0.157-0.986-0.297-1.602-0.398  c-1.997-0.33-8.978-2.479-8.978-2.479s6.714,2.894,8.468,3.906c0.584,0.337,1.125,0.584,1.612,0.756  c0.219,0.676,0.848,1.169,1.597,1.169c0.932,0,1.686-0.755,1.686-1.685C42.932,46.402,42.716,45.962,42.378,45.654z M41.246,46.211  c0.082,0,0.159,0.021,0.232,0.047c0.12,0.081,0.222,0.163,0.313,0.244c0.082,0.113,0.141,0.245,0.141,0.395  c0,0.04-0.016,0.074-0.023,0.112c-0.056,0.322-0.325,0.572-0.663,0.572c-0.378,0-0.686-0.307-0.686-0.685  c0-0.165,0.066-0.31,0.163-0.428C40.85,46.315,41.033,46.211,41.246,46.211z" fill="#f7f0df" style="fill: rgb(247, 240, 223);"></path><path d="M41.246,38.785c-0.276,0-0.5-0.224-0.5-0.5v-3.097c0-0.276,0.224-0.5,0.5-0.5s0.5,0.224,0.5,0.5v3.097  C41.746,38.561,41.522,38.785,41.246,38.785z" fill="#f7f0df" style="fill: rgb(247, 240, 223);"></path><path d="M41.246,59.307c-0.276,0-0.5-0.224-0.5-0.5V55.71c0-0.276,0.224-0.5,0.5-0.5s0.5,0.224,0.5,0.5v3.097  C41.746,59.083,41.522,59.307,41.246,59.307z" fill="#f7f0df" style="fill: rgb(247, 240, 223);"></path><path d="M32.604,47.496h-3.097c-0.276,0-0.5-0.224-0.5-0.5s0.224-0.5,0.5-0.5h3.097c0.276,0,0.5,0.224,0.5,0.5  S32.88,47.496,32.604,47.496z" fill="#f7f0df" style="fill: rgb(247, 240, 223);"></path><path d="M53.127,47.496h-3.098c-0.276,0-0.5-0.224-0.5-0.5s0.224-0.5,0.5-0.5h3.098c0.276,0,0.5,0.224,0.5,0.5  S53.403,47.496,53.127,47.496z" fill="#f7f0df" style="fill: rgb(247, 240, 223);"></path><path d="M94.455,54.364c0-1.658-0.911-2.715-1.643-3.564c-0.555-0.644-0.895-1.061-0.895-1.515c0-0.504,0.368-0.874,1.02-1.485  c0.809-0.759,1.916-1.798,1.916-3.611c0-2.045-1.172-3.155-2.026-3.965c-0.574-0.544-0.899-0.869-0.899-1.228  c0-0.503,0.173-0.773,0.486-1.263c0.465-0.727,1.103-1.723,1.103-3.728c0-2.658-2.453-3.773-3.75-3.992L48,30.006v-0.398  C48,29.272,47.728,29,47.393,29H35.607C35.272,29,35,29.272,35,29.607v0.396L21,30v-3H4v40h17v-3h14v0.393  C35,64.729,35.272,65,35.607,65h11.785C47.728,65,48,64.729,48,64.393V64h2.19c0.179,0.332,0.467,0.992,0.766,2.187  c0.697,2.789,3.749,3.547,4.349,3.67c3.621,1.292,20.791,7.374,23.253,7.374c3.525,0,5.304-5.148,5.878-7.23h5.029l0.248-0.031  c1.467-0.376,4.277-1.953,4.417-5.233c0.068-1.616-0.69-2.442-1.3-3.105c-0.512-0.558-0.882-0.961-0.882-1.903  c0-0.434,0.299-0.814,0.827-1.449C93.484,57.424,94.455,56.256,94.455,54.364z M19,30v27H6V29h13V30z M35,62H21V32h14v1.037  c-5.305,2.399-9.003,7.726-9.003,13.928c0,6.201,3.698,11.527,9.003,13.927V62z M41.288,60.255c-2.273,0-4.415-0.575-6.288-1.586  c-4.165-2.247-7.003-6.649-7.003-11.704c0-5.055,2.838-9.458,7.003-11.705c1.874-1.011,4.015-1.586,6.288-1.586  c2.45,0,4.739,0.678,6.712,1.838c3.93,2.312,6.58,6.574,6.58,11.453c0,4.879-2.65,9.141-6.58,11.452  C46.027,59.577,43.738,60.255,41.288,60.255z M91.237,56.999c-0.604,0.727-1.289,1.55-1.289,2.728c0,1.722,0.814,2.608,1.409,3.256  c0.504,0.549,0.808,0.88,0.774,1.669c-0.1,2.343-2.294,3.183-2.811,3.349H75.844c0,0-0.982,0.078-0.982,1c0,1,1.139,1,1.139,1h6.351  c-0.696,2.223-2.105,5.23-3.793,5.23c-1.645,0-14.767-4.468-22.652-7.283l-0.169-0.045c-0.024-0.004-2.403-0.452-2.841-2.2  c-0.618-2.476-1.283-3.248-1.54-3.466L51.076,62H48v-1.313c5.076-2.487,8.58-7.688,8.58-13.723c0-6.035-3.504-11.237-8.58-13.724V32  h41.502c0.359,0.08,2.015,0.528,2.015,2.006c0,1.419-0.383,2.017-0.787,2.649c-0.376,0.587-0.802,1.252-0.802,2.341  c0,1.236,0.81,2.003,1.523,2.68c0.753,0.713,1.402,1.329,1.402,2.514c0,0.901-0.488,1.405-1.284,2.152  c-0.735,0.69-1.651,1.549-1.651,2.943c0,1.219,0.732,2.069,1.379,2.82c0.622,0.721,1.158,1.344,1.158,2.259  C92.455,55.533,91.891,56.213,91.237,56.999z" fill="#f7f0df" style="fill: rgb(247, 240, 223);"></path></g></svg>
<svg xmlns="http://www.w3.org/2000/svg" version="1.1" xmlns:xlink="http://www.w3.org/1999/xlink" xmlns:svgjs="http://svgjs.com/svgjs" height="151.52874946594238" width="255.65084838867188"><defs id="SvgjsDefs1570"></defs><g id="SvgjsG1571" rel="mainfill" name="main_text" xmlns:name="main_text" transform="translate(-4.630000114440918,-112.00124931335449)" fill="#f7f0df"><path d="M15.31 198.70L31.19 198.70C33.61 198.70 34.18 196.56 34.18 194.42C34.18 192.29 33.54 190.15 31.19 190.15L11.61 190.15C8.05 190.15 4.63 191.08 4.63 196.42L4.63 233.73C4.63 239.07 8.05 240 11.61 240L31.19 240C33.54 240 34.18 237.86 34.18 235.73C34.18 233.59 33.61 231.45 31.19 231.45L15.31 231.45C14.46 231.45 14.10 231.17 14.10 230.24L14.10 218.49L28.56 218.49C30.91 218.49 31.55 216.36 31.55 214.22C31.55 212.08 30.91 209.95 28.56 209.95L14.10 209.95L14.10 199.91C14.10 198.98 14.46 198.70 15.31 198.70ZM48.14 205.75C47.36 202.97 44.44 202.33 42.09 202.33C39.74 202.33 37.10 203.04 37.96 205.75L48.07 237.22C48.92 239.93 51.84 240.64 54.19 240.64C56.47 240.64 59.39 239.93 60.25 237.22L70.36 205.75C71.21 203.04 68.58 202.33 66.23 202.33C63.95 202.33 61.03 202.97 60.25 205.75L55.69 221.63C55.05 223.83 54.76 226.40 54.19 228.61C53.62 226.40 53.27 223.83 52.63 221.63ZM91.08 209.52C94.36 209.52 96.71 211.59 96.99 215.36C97.06 216.50 96.42 216.93 95.71 216.93L84.03 216.93C84.53 212.44 86.95 209.52 91.08 209.52ZM104.97 231.60C105.47 230.17 105.18 228.11 102.05 227.75C99.34 227.47 97.56 228.04 96.85 229.39C95.57 231.81 94.14 233.16 91.15 233.16C85.31 233.23 83.89 228.25 83.75 223.55L99.49 223.55C103.83 223.55 105.89 222.20 105.97 217.43C106.04 208.38 100.41 202.19 90.65 202.19C78.62 202.19 74.13 211.30 74.13 221.34C74.20 231.74 79.12 240.93 90.94 241.00C97.78 241.00 103.12 237.65 104.97 231.60ZM121.99 205.82C121.63 203.04 119.99 202.40 117.36 202.40C115.22 202.40 113.16 203.25 113.16 205.75L113.16 237.22C113.16 239.93 115.58 240.64 117.93 240.64C120.35 240.64 122.70 239.93 122.70 237.22L122.70 220.35C122.70 215.36 124.55 210.45 130.53 210.45C134.31 210.45 135.16 214.01 135.16 216.71L135.16 237.22C135.16 239.93 137.58 240.64 139.93 240.64C142.36 240.64 144.71 239.93 144.71 237.22L144.71 214.65C144.71 205.89 140.29 201.90 132.67 201.90C129.61 201.90 125.34 202.68 122.13 206.67ZM155.39 196.77L155.39 203.11L153.11 203.11C150.40 203.11 149.69 205.03 149.69 206.96C149.69 208.88 150.40 210.80 153.11 210.80L155.39 210.80L155.39 227.89C155.39 235.51 158.31 240.64 167.71 240.64C169.42 240.64 171.34 240.43 172.69 239.86C174.40 239.07 174.83 237.65 174.83 235.87C174.83 233.02 173.90 231.45 170.77 231.81C166.43 232.31 164.93 230.60 164.93 227.32L164.93 210.80L168.92 210.80C171.62 210.80 172.34 208.88 172.34 206.96C172.34 205.03 171.62 203.11 168.92 203.11L164.93 203.11L164.93 196.77C164.93 194.07 162.58 193.36 160.16 193.36C157.81 193.36 155.39 194.07 155.39 196.77ZM216.92 189.79C214.99 189.79 213.78 190.36 212.86 191.72C211.72 193.50 200.96 214.43 200.96 214.43C200.96 214.43 190.21 193.50 189.00 191.72C188.07 190.36 186.86 189.79 185.01 189.79C182.73 189.79 180.53 190.65 180.53 193.21L180.53 237.29C180.53 239.93 182.88 240.64 185.08 240.64C187.29 240.64 189.71 239.93 189.71 237.29L189.71 208.45C190.42 210.52 191.49 212.73 192.42 214.58L197.83 225.40C198.47 226.61 199.68 227.04 200.96 227.04C202.17 227.04 203.39 226.61 204.03 225.40L209.51 214.58C210.36 212.73 211.50 210.52 212.14 208.45L212.14 237.29C212.14 239.93 214.57 240.64 216.77 240.64C218.98 240.64 221.33 239.93 221.33 237.29L221.33 193.21C221.33 190.65 219.19 189.79 216.92 189.79ZM245.40 209.52C248.68 209.52 251.03 211.59 251.31 215.36C251.38 216.50 250.74 216.93 250.03 216.93L238.35 216.93C238.85 212.44 241.27 209.52 245.40 209.52ZM259.29 231.60C259.79 230.17 259.50 228.11 256.37 227.75C253.66 227.47 251.88 228.04 251.17 229.39C249.89 231.81 248.46 233.16 245.47 233.16C239.63 233.23 238.21 228.25 238.07 223.55L253.80 223.55C258.15 223.55 260.21 222.20 260.28 217.43C260.36 208.38 254.73 202.19 244.97 202.19C232.94 202.19 228.45 211.30 228.45 221.34C228.52 231.74 233.44 240.93 245.26 241.00C252.10 241.00 257.44 237.65 259.29 231.60Z" fill="#f7f0df" style="fill: rgb(247, 240, 223);"></path></g><g id="SvgjsG1572" rel="mainfill" name="slogan_text" xmlns:name="slogan_text" transform="translate(133.32084500789642,-88.74125480651855)" fill="#f7f0df"><path d="M5.92 229.47L5.92 240L4.33 240L4.33 229.47L0.35 229.47L0.35 228.03L9.89 228.03L9.89 229.47L5.92 229.47ZM15.21 228.62Q15.21 229.14 14.98 229.33Q14.74 229.51 14.23 229.51Q13.69 229.51 13.48 229.28Q13.27 229.05 13.27 228.62Q13.27 228.16 13.50 227.95Q13.72 227.74 14.23 227.74Q14.76 227.74 14.98 227.94Q15.21 228.15 15.21 228.62M13.49 240L13.49 230.92L14.98 230.92L14.98 240L13.49 240ZM30.14 240L30.14 234.65Q30.14 233.30 30.04 232.87Q29.93 232.44 29.67 232.27Q29.41 232.10 28.89 232.10Q28.44 232.10 27.87 232.42Q27.31 232.74 26.40 233.59L26.40 240L24.92 240L24.92 234.65Q24.92 233.37 24.81 232.92Q24.71 232.47 24.46 232.29Q24.21 232.10 23.68 232.10Q23.19 232.10 22.54 232.49Q21.90 232.87 21.18 233.59L21.18 240L19.69 240L19.69 230.92L21.18 230.92L21.18 232.27Q21.77 231.63 22.49 231.15Q23.22 230.66 24.05 230.66Q24.97 230.66 25.52 231.09Q26.07 231.51 26.25 232.44Q26.96 231.69 27.69 231.17Q28.43 230.66 29.33 230.66Q30.16 230.66 30.66 231.01Q31.16 231.36 31.40 232.03Q31.63 232.69 31.63 233.94L31.63 240L30.14 240ZM37.36 235.64Q37.36 237.44 37.97 238.20Q38.58 238.97 39.94 238.97Q40.55 238.97 41.01 238.72Q41.47 238.46 41.89 237.89L43.12 238.65Q42.60 239.43 41.85 239.85Q41.11 240.27 39.84 240.27Q37.81 240.27 36.81 239.09Q35.82 237.91 35.82 235.54Q35.82 233.04 36.79 231.85Q37.76 230.66 39.73 230.66Q41.49 230.66 42.37 231.68Q43.26 232.70 43.26 234.81L43.26 235.64L37.36 235.64M41.80 234.47Q41.79 233.25 41.29 232.58Q40.79 231.90 39.67 231.90Q38.61 231.90 38.08 232.51Q37.55 233.12 37.37 234.47L41.80 234.47ZM60.76 237.34L60.76 240L59.22 240L59.22 237.34L53.06 237.34L53.06 235.80L59.29 228.03L60.76 228.03L60.76 235.96L62.41 235.96L62.41 237.34L60.76 237.34M59.22 230.31L54.63 235.96L59.22 235.96L59.22 230.31ZM74.30 235.64Q74.30 237.44 74.92 238.20Q75.53 238.97 76.89 238.97Q77.50 238.97 77.95 238.72Q78.41 238.46 78.84 237.89L80.07 238.65Q79.55 239.43 78.80 239.85Q78.06 240.27 76.79 240.27Q74.76 240.27 73.76 239.09Q72.76 237.91 72.76 235.54Q72.76 233.04 73.74 231.85Q74.71 230.66 76.67 230.66Q78.44 230.66 79.32 231.68Q80.20 232.70 80.20 234.81L80.20 235.64L74.30 235.64M78.75 234.47Q78.73 233.25 78.24 232.58Q77.74 231.90 76.62 231.90Q75.56 231.90 75.03 232.51Q74.49 233.12 74.32 234.47L78.75 234.47ZM87.96 240L86.49 240L83.32 230.92L84.92 230.92L87.27 238.05L89.61 230.92L91.15 230.92L87.96 240ZM95.92 235.64Q95.92 237.44 96.54 238.20Q97.15 238.97 98.51 238.97Q99.11 238.97 99.57 238.72Q100.03 238.46 100.46 237.89L101.68 238.65Q101.16 239.43 100.42 239.85Q99.68 240.27 98.40 240.27Q96.38 240.27 95.38 239.09Q94.38 237.91 94.38 235.54Q94.38 233.04 95.35 231.85Q96.33 230.66 98.29 230.66Q100.06 230.66 100.94 231.68Q101.82 232.70 101.82 234.81L101.82 235.64L95.92 235.64M100.37 234.47Q100.35 233.25 99.85 232.58Q99.36 231.90 98.24 231.90Q97.18 231.90 96.64 232.51Q96.11 233.12 95.94 234.47L100.37 234.47ZM111.67 240L111.67 234.65Q111.67 233.35 111.54 232.92Q111.41 232.49 111.11 232.30Q110.82 232.10 110.26 232.10Q109.69 232.10 108.92 232.53Q108.16 232.97 107.45 233.59L107.45 240L105.97 240L105.97 230.92L107.45 230.92L107.45 232.27Q108.09 231.64 108.92 231.15Q109.76 230.66 110.61 230.66Q111.93 230.66 112.54 231.41Q113.16 232.16 113.16 233.94L113.16 240L111.67 240ZM122.33 240Q121.47 240.27 120.62 240.27Q119.24 240.27 118.63 239.54Q118.03 238.81 118.03 237.26L118.03 232.17L116.74 232.17L116.74 230.92L118.03 230.92L118.03 228.40L119.52 228.40L119.52 230.92L121.82 230.92L121.82 232.17L119.52 232.17L119.52 236.97Q119.52 238.07 119.74 238.55Q119.96 239.02 120.72 239.02Q121.38 239.02 121.94 238.78L122.33 240Z" fill="#f7f0df" style="fill: rgb(247, 240, 223);"></path></g><g id="SvgjsG1573" rel="mainfill" name="symbol" xmlns:name="symbol_mainfill" transform="translate(66.04229640960693,-33.75) scale(1.25)" fill="#f7f0df"><path d="M42.378,45.654c0.031-0.523-0.011-1.186-0.186-2.052c-0.402-1.984-0.837-4.045-0.837-4.045S41,41.633,40.677,43.632  c-0.112,0.694-0.148,1.265-0.133,1.737c-0.145,0.067-0.276,0.155-0.396,0.258c-0.459-0.157-0.986-0.297-1.602-0.398  c-1.997-0.33-8.978-2.479-8.978-2.479s6.714,2.894,8.468,3.906c0.584,0.337,1.125,0.584,1.612,0.756  c0.219,0.676,0.848,1.169,1.597,1.169c0.932,0,1.686-0.755,1.686-1.685C42.932,46.402,42.716,45.962,42.378,45.654z M41.246,46.211  c0.082,0,0.159,0.021,0.232,0.047c0.12,0.081,0.222,0.163,0.313,0.244c0.082,0.113,0.141,0.245,0.141,0.395  c0,0.04-0.016,0.074-0.023,0.112c-0.056,0.322-0.325,0.572-0.663,0.572c-0.378,0-0.686-0.307-0.686-0.685  c0-0.165,0.066-0.31,0.163-0.428C40.85,46.315,41.033,46.211,41.246,46.211z" fill="#f7f0df" style="fill: rgb(247, 240, 223);"></path><path d="M41.246,38.785c-0.276,0-0.5-0.224-0.5-0.5v-3.097c0-0.276,0.224-0.5,0.5-0.5s0.5,0.224,0.5,0.5v3.097  C41.746,38.561,41.522,38.785,41.246,38.785z" fill="#f7f0df" style="fill: rgb(247, 240, 223);"></path><path d="M41.246,59.307c-0.276,0-0.5-0.224-0.5-0.5V55.71c0-0.276,0.224-0.5,0.5-0.5s0.5,0.224,0.5,0.5v3.097  C41.746,59.083,41.522,59.307,41.246,59.307z" fill="#f7f0df" style="fill: rgb(247, 240, 223);"></path><path d="M32.604,47.496h-3.097c-0.276,0-0.5-0.224-0.5-0.5s0.224-0.5,0.5-0.5h3.097c0.276,0,0.5,0.224,0.5,0.5  S32.88,47.496,32.604,47.496z" fill="#f7f0df" style="fill: rgb(247, 240, 223);"></path><path d="M53.127,47.496h-3.098c-0.276,0-0.5-0.224-0.5-0.5s0.224-0.5,0.5-0.5h3.098c0.276,0,0.5,0.224,0.5,0.5  S53.403,47.496,53.127,47.496z" fill="#f7f0df" style="fill: rgb(247, 240, 223);"></path><path d="M94.455,54.364c0-1.658-0.911-2.715-1.643-3.564c-0.555-0.644-0.895-1.061-0.895-1.515c0-0.504,0.368-0.874,1.02-1.485  c0.809-0.759,1.916-1.798,1.916-3.611c0-2.045-1.172-3.155-2.026-3.965c-0.574-0.544-0.899-0.869-0.899-1.228  c0-0.503,0.173-0.773,0.486-1.263c0.465-0.727,1.103-1.723,1.103-3.728c0-2.658-2.453-3.773-3.75-3.992L48,30.006v-0.398  C48,29.272,47.728,29,47.393,29H35.607C35.272,29,35,29.272,35,29.607v0.396L21,30v-3H4v40h17v-3h14v0.393  C35,64.729,35.272,65,35.607,65h11.785C47.728,65,48,64.729,48,64.393V64h2.19c0.179,0.332,0.467,0.992,0.766,2.187  c0.697,2.789,3.749,3.547,4.349,3.67c3.621,1.292,20.791,7.374,23.253,7.374c3.525,0,5.304-5.148,5.878-7.23h5.029l0.248-0.031  c1.467-0.376,4.277-1.953,4.417-5.233c0.068-1.616-0.69-2.442-1.3-3.105c-0.512-0.558-0.882-0.961-0.882-1.903  c0-0.434,0.299-0.814,0.827-1.449C93.484,57.424,94.455,56.256,94.455,54.364z M19,30v27H6V29h13V30z M35,62H21V32h14v1.037  c-5.305,2.399-9.003,7.726-9.003,13.928c0,6.201,3.698,11.527,9.003,13.927V62z M41.288,60.255c-2.273,0-4.415-0.575-6.288-1.586  c-4.165-2.247-7.003-6.649-7.003-11.704c0-5.055,2.838-9.458,7.003-11.705c1.874-1.011,4.015-1.586,6.288-1.586  c2.45,0,4.739,0.678,6.712,1.838c3.93,2.312,6.58,6.574,6.58,11.453c0,4.879-2.65,9.141-6.58,11.452  C46.027,59.577,43.738,60.255,41.288,60.255z M91.237,56.999c-0.604,0.727-1.289,1.55-1.289,2.728c0,1.722,0.814,2.608,1.409,3.256  c0.504,0.549,0.808,0.88,0.774,1.669c-0.1,2.343-2.294,3.183-2.811,3.349H75.844c0,0-0.982,0.078-0.982,1c0,1,1.139,1,1.139,1h6.351  c-0.696,2.223-2.105,5.23-3.793,5.23c-1.645,0-14.767-4.468-22.652-7.283l-0.169-0.045c-0.024-0.004-2.403-0.452-2.841-2.2  c-0.618-2.476-1.283-3.248-1.54-3.466L51.076,62H48v-1.313c5.076-2.487,8.58-7.688,8.58-13.723c0-6.035-3.504-11.237-8.58-13.724V32  h41.502c0.359,0.08,2.015,0.528,2.015,2.006c0,1.419-0.383,2.017-0.787,2.649c-0.376,0.587-0.802,1.252-0.802,2.341  c0,1.236,0.81,2.003,1.523,2.68c0.753,0.713,1.402,1.329,1.402,2.514c0,0.901-0.488,1.405-1.284,2.152  c-0.735,0.69-1.651,1.549-1.651,2.943c0,1.219,0.732,2.069,1.379,2.82c0.622,0.721,1.158,1.344,1.158,2.259  C92.455,55.533,91.891,56.213,91.237,56.999z" fill="#f7f0df" style="fill: rgb(247, 240, 223);"></path></g></svg>